<svg width="24" height="24" viewBox="0 0 24 24" fill="none" xmlns="http://www.w3.org/2000/svg">
<path fill-rule="evenodd" clip-rule="evenodd" d="M17.2078 6.38292C15.6655 5.50191 13.8901 5 12 5C7.45455 5 3.57273 7.90267 2 12C3.01382 14.6413 4.98718 16.7861 7.4793 17.9769L9.32744 15.7744C8.19256 14.9257 7.45455 13.5508 7.45455 12C7.45455 9.424 9.49091 7.33333 12 7.33333C13.268 7.33333 14.4153 7.8673 15.2401 8.72802L17.2078 6.38292ZM11.8445 16.664C11.8961 16.6658 11.948 16.6667 12 16.6667C14.5091 16.6667 16.5455 14.576 16.5455 12C16.5455 11.7101 16.5197 11.4264 16.4703 11.1511L19.2231 7.87051C20.4322 9.00072 21.3899 10.4105 22 12C20.4273 16.0973 16.5455 19 12 19C11.33 19 10.6744 18.9369 10.0385 18.8163L11.8445 16.664ZM14.048 10.1486C13.5487 9.56656 12.817 9.2 12 9.2C10.4909 9.2 9.27273 10.4507 9.27273 12C9.27273 12.9885 9.76865 13.8555 10.5196 14.3536L14.048 10.1486Z" fill="#717171"/>
<path d="M18 5L6.42982 18.7888" stroke="#717171" stroke-width="2" stroke-linecap="round"/>
</svg>
