<svg width="24" height="24" viewBox="0 0 24 24" fill="none" xmlns="http://www.w3.org/2000/svg">
<g clip-path="url(#clip0_415_20066)">
<path d="M12 24.0021C18.6274 24.0021 24 18.6295 24 12.0021C24 5.37466 18.6274 0.0020752 12 0.0020752C5.37258 0.0020752 -7.62939e-06 5.37466 -7.62939e-06 12.0021C-7.62939e-06 18.6295 5.37258 24.0021 12 24.0021Z" fill="#1977F3"/>
<path d="M16.6711 15.4712L17.2026 12.0016H13.8748V9.75045C13.8748 8.80206 14.3389 7.87561 15.8307 7.87561H17.3444V4.92243C17.3444 4.92243 15.9708 4.68787 14.6579 4.68787C11.9173 4.68787 10.1252 6.34839 10.1252 9.35725V12.0016H7.07748V15.4712H10.1252V23.8565C10.736 23.9527 11.3621 24.0016 12 24.0016C12.6379 24.0016 13.264 23.951 13.8748 23.8565V15.4712H16.6711Z" fill="white"/>
</g>
<defs>
<clipPath id="clip0_415_20066">
<rect width="24" height="24" fill="white"/>
</clipPath>
</defs>
</svg>
